<mxfile host="app.diagrams.net" agent="Mozilla/5.0 (Windows NT 10.0; Win64; x64) AppleWebKit/537.36 (KHTML, like Gecko) Chrome/128.0.0.0 Safari/537.36" version="24.7.12">
  <diagram name="Seite-1" id="yl_nS6NoV1mKi05wx8sm">
    <mxGraphModel dx="1290" dy="596" grid="1" gridSize="10" guides="1" tooltips="1" connect="1" arrows="1" fold="1" page="1" pageScale="1" pageWidth="1169" pageHeight="827" math="0" shadow="0">
      <root>
        <mxCell id="0" />
        <mxCell id="1" parent="0" />
        <mxCell id="4-ZppeO4a1uy9IRK5gXB-1" value="parcels_to_deliver" style="rounded=0;whiteSpace=wrap;html=1;" vertex="1" parent="1">
          <mxGeometry x="240" y="145" width="120" height="40" as="geometry" />
        </mxCell>
        <mxCell id="4-ZppeO4a1uy9IRK5gXB-2" value="&lt;u&gt;barcode&lt;/u&gt;" style="ellipse;whiteSpace=wrap;html=1;" vertex="1" parent="1">
          <mxGeometry x="210" y="95" width="70" height="30" as="geometry" />
        </mxCell>
        <mxCell id="4-ZppeO4a1uy9IRK5gXB-3" value="" style="endArrow=none;html=1;rounded=0;entryX=0.5;entryY=1;entryDx=0;entryDy=0;exitX=0.25;exitY=0;exitDx=0;exitDy=0;" edge="1" parent="1" source="4-ZppeO4a1uy9IRK5gXB-1" target="4-ZppeO4a1uy9IRK5gXB-2">
          <mxGeometry width="50" height="50" relative="1" as="geometry">
            <mxPoint x="260" y="135" as="sourcePoint" />
            <mxPoint x="310" y="85" as="targetPoint" />
          </mxGeometry>
        </mxCell>
        <mxCell id="4-ZppeO4a1uy9IRK5gXB-4" value="weight" style="ellipse;whiteSpace=wrap;html=1;" vertex="1" parent="1">
          <mxGeometry x="260" y="60" width="80" height="35" as="geometry" />
        </mxCell>
        <mxCell id="4-ZppeO4a1uy9IRK5gXB-5" value="" style="endArrow=none;html=1;rounded=0;entryX=0.5;entryY=1;entryDx=0;entryDy=0;exitX=0.5;exitY=0;exitDx=0;exitDy=0;" edge="1" parent="1" source="4-ZppeO4a1uy9IRK5gXB-1" target="4-ZppeO4a1uy9IRK5gXB-4">
          <mxGeometry width="50" height="50" relative="1" as="geometry">
            <mxPoint x="470" y="145" as="sourcePoint" />
            <mxPoint x="520" y="95" as="targetPoint" />
          </mxGeometry>
        </mxCell>
        <mxCell id="4-ZppeO4a1uy9IRK5gXB-6" value="from_name" style="ellipse;whiteSpace=wrap;html=1;" vertex="1" parent="1">
          <mxGeometry x="330" y="95" width="80" height="35" as="geometry" />
        </mxCell>
        <mxCell id="4-ZppeO4a1uy9IRK5gXB-7" value="" style="endArrow=none;html=1;rounded=0;entryX=0.5;entryY=1;entryDx=0;entryDy=0;exitX=0.75;exitY=0;exitDx=0;exitDy=0;" edge="1" parent="1" source="4-ZppeO4a1uy9IRK5gXB-1" target="4-ZppeO4a1uy9IRK5gXB-6">
          <mxGeometry width="50" height="50" relative="1" as="geometry">
            <mxPoint x="340" y="160" as="sourcePoint" />
            <mxPoint x="340" y="95" as="targetPoint" />
          </mxGeometry>
        </mxCell>
        <mxCell id="4-ZppeO4a1uy9IRK5gXB-8" value="from_address" style="ellipse;whiteSpace=wrap;html=1;" vertex="1" parent="1">
          <mxGeometry x="420" y="95" width="100" height="35" as="geometry" />
        </mxCell>
        <mxCell id="4-ZppeO4a1uy9IRK5gXB-9" value="" style="endArrow=none;html=1;rounded=0;entryX=0;entryY=1;entryDx=0;entryDy=0;exitX=1;exitY=0.25;exitDx=0;exitDy=0;" edge="1" parent="1" source="4-ZppeO4a1uy9IRK5gXB-1" target="4-ZppeO4a1uy9IRK5gXB-8">
          <mxGeometry width="50" height="50" relative="1" as="geometry">
            <mxPoint x="340" y="155" as="sourcePoint" />
            <mxPoint x="400" y="105" as="targetPoint" />
          </mxGeometry>
        </mxCell>
        <mxCell id="4-ZppeO4a1uy9IRK5gXB-10" value="from_postal" style="ellipse;whiteSpace=wrap;html=1;" vertex="1" parent="1">
          <mxGeometry x="420" y="145" width="100" height="35" as="geometry" />
        </mxCell>
        <mxCell id="4-ZppeO4a1uy9IRK5gXB-11" value="from_city" style="ellipse;whiteSpace=wrap;html=1;" vertex="1" parent="1">
          <mxGeometry x="410" y="195" width="100" height="35" as="geometry" />
        </mxCell>
        <mxCell id="4-ZppeO4a1uy9IRK5gXB-12" value="to_name" style="ellipse;whiteSpace=wrap;html=1;" vertex="1" parent="1">
          <mxGeometry x="340" y="230" width="100" height="35" as="geometry" />
        </mxCell>
        <mxCell id="4-ZppeO4a1uy9IRK5gXB-13" value="to_address" style="ellipse;whiteSpace=wrap;html=1;" vertex="1" parent="1">
          <mxGeometry x="110" y="205" width="100" height="35" as="geometry" />
        </mxCell>
        <mxCell id="4-ZppeO4a1uy9IRK5gXB-14" value="to_postal" style="ellipse;whiteSpace=wrap;html=1;" vertex="1" parent="1">
          <mxGeometry x="270" y="265" width="100" height="35" as="geometry" />
        </mxCell>
        <mxCell id="4-ZppeO4a1uy9IRK5gXB-15" value="to_city" style="ellipse;whiteSpace=wrap;html=1;" vertex="1" parent="1">
          <mxGeometry x="220" y="215" width="100" height="35" as="geometry" />
        </mxCell>
        <mxCell id="4-ZppeO4a1uy9IRK5gXB-16" value="sender_phone_number" style="ellipse;whiteSpace=wrap;html=1;" vertex="1" parent="1">
          <mxGeometry x="50" y="160" width="150" height="35" as="geometry" />
        </mxCell>
        <mxCell id="4-ZppeO4a1uy9IRK5gXB-17" value="receiver_phone_number" style="ellipse;whiteSpace=wrap;html=1;" vertex="1" parent="1">
          <mxGeometry x="60" y="115" width="150" height="35" as="geometry" />
        </mxCell>
        <mxCell id="4-ZppeO4a1uy9IRK5gXB-18" value="" style="endArrow=none;html=1;rounded=0;entryX=1;entryY=1;entryDx=0;entryDy=0;exitX=0;exitY=0.25;exitDx=0;exitDy=0;" edge="1" parent="1" source="4-ZppeO4a1uy9IRK5gXB-1" target="4-ZppeO4a1uy9IRK5gXB-17">
          <mxGeometry width="50" height="50" relative="1" as="geometry">
            <mxPoint x="280" y="155" as="sourcePoint" />
            <mxPoint x="225" y="105" as="targetPoint" />
          </mxGeometry>
        </mxCell>
        <mxCell id="4-ZppeO4a1uy9IRK5gXB-19" value="" style="endArrow=none;html=1;rounded=0;entryX=1;entryY=0.5;entryDx=0;entryDy=0;exitX=0;exitY=0.75;exitDx=0;exitDy=0;" edge="1" parent="1" source="4-ZppeO4a1uy9IRK5gXB-1" target="4-ZppeO4a1uy9IRK5gXB-16">
          <mxGeometry width="50" height="50" relative="1" as="geometry">
            <mxPoint x="250" y="165" as="sourcePoint" />
            <mxPoint x="189" y="150" as="targetPoint" />
          </mxGeometry>
        </mxCell>
        <mxCell id="4-ZppeO4a1uy9IRK5gXB-20" value="" style="endArrow=none;html=1;rounded=0;entryX=1;entryY=0;entryDx=0;entryDy=0;exitX=0.25;exitY=1;exitDx=0;exitDy=0;" edge="1" parent="1" source="4-ZppeO4a1uy9IRK5gXB-1" target="4-ZppeO4a1uy9IRK5gXB-13">
          <mxGeometry width="50" height="50" relative="1" as="geometry">
            <mxPoint x="250" y="185" as="sourcePoint" />
            <mxPoint x="220" y="188" as="targetPoint" />
          </mxGeometry>
        </mxCell>
        <mxCell id="4-ZppeO4a1uy9IRK5gXB-21" value="" style="endArrow=none;html=1;rounded=0;entryX=0.5;entryY=0;entryDx=0;entryDy=0;exitX=0.5;exitY=1;exitDx=0;exitDy=0;" edge="1" parent="1" source="4-ZppeO4a1uy9IRK5gXB-1" target="4-ZppeO4a1uy9IRK5gXB-15">
          <mxGeometry width="50" height="50" relative="1" as="geometry">
            <mxPoint x="280" y="195" as="sourcePoint" />
            <mxPoint x="205" y="220" as="targetPoint" />
          </mxGeometry>
        </mxCell>
        <mxCell id="4-ZppeO4a1uy9IRK5gXB-22" value="" style="endArrow=none;html=1;rounded=0;entryX=0.5;entryY=0;entryDx=0;entryDy=0;exitX=0.75;exitY=1;exitDx=0;exitDy=0;" edge="1" parent="1" source="4-ZppeO4a1uy9IRK5gXB-1" target="4-ZppeO4a1uy9IRK5gXB-14">
          <mxGeometry width="50" height="50" relative="1" as="geometry">
            <mxPoint x="310" y="195" as="sourcePoint" />
            <mxPoint x="210" y="255" as="targetPoint" />
          </mxGeometry>
        </mxCell>
        <mxCell id="4-ZppeO4a1uy9IRK5gXB-23" value="" style="endArrow=none;html=1;rounded=0;entryX=0.5;entryY=0;entryDx=0;entryDy=0;exitX=1;exitY=1;exitDx=0;exitDy=0;" edge="1" parent="1" source="4-ZppeO4a1uy9IRK5gXB-1" target="4-ZppeO4a1uy9IRK5gXB-12">
          <mxGeometry width="50" height="50" relative="1" as="geometry">
            <mxPoint x="340" y="195" as="sourcePoint" />
            <mxPoint x="320" y="275" as="targetPoint" />
          </mxGeometry>
        </mxCell>
        <mxCell id="4-ZppeO4a1uy9IRK5gXB-24" value="" style="endArrow=none;html=1;rounded=0;entryX=0;entryY=0.5;entryDx=0;entryDy=0;exitX=1;exitY=0.75;exitDx=0;exitDy=0;" edge="1" parent="1" source="4-ZppeO4a1uy9IRK5gXB-1" target="4-ZppeO4a1uy9IRK5gXB-11">
          <mxGeometry width="50" height="50" relative="1" as="geometry">
            <mxPoint x="370" y="195" as="sourcePoint" />
            <mxPoint x="395" y="260" as="targetPoint" />
          </mxGeometry>
        </mxCell>
        <mxCell id="4-ZppeO4a1uy9IRK5gXB-25" value="" style="endArrow=none;html=1;rounded=0;entryX=1;entryY=0.5;entryDx=0;entryDy=0;exitX=0;exitY=0.5;exitDx=0;exitDy=0;" edge="1" parent="1" source="4-ZppeO4a1uy9IRK5gXB-10" target="4-ZppeO4a1uy9IRK5gXB-1">
          <mxGeometry width="50" height="50" relative="1" as="geometry">
            <mxPoint x="370" y="185" as="sourcePoint" />
            <mxPoint x="420" y="223" as="targetPoint" />
          </mxGeometry>
        </mxCell>
        <mxCell id="4-ZppeO4a1uy9IRK5gXB-26" value="delivered_parcels" style="rounded=0;whiteSpace=wrap;html=1;" vertex="1" parent="1">
          <mxGeometry x="770" y="160" width="120" height="40" as="geometry" />
        </mxCell>
        <mxCell id="4-ZppeO4a1uy9IRK5gXB-27" value="&lt;u&gt;barcode&lt;/u&gt;" style="ellipse;whiteSpace=wrap;html=1;" vertex="1" parent="1">
          <mxGeometry x="710" y="80" width="70" height="30" as="geometry" />
        </mxCell>
        <mxCell id="4-ZppeO4a1uy9IRK5gXB-28" value="" style="endArrow=none;html=1;rounded=0;entryX=0.5;entryY=1;entryDx=0;entryDy=0;exitX=0.25;exitY=0;exitDx=0;exitDy=0;" edge="1" parent="1" source="4-ZppeO4a1uy9IRK5gXB-26" target="4-ZppeO4a1uy9IRK5gXB-27">
          <mxGeometry width="50" height="50" relative="1" as="geometry">
            <mxPoint x="210" y="155" as="sourcePoint" />
            <mxPoint x="185" y="135" as="targetPoint" />
          </mxGeometry>
        </mxCell>
        <mxCell id="4-ZppeO4a1uy9IRK5gXB-29" value="from_name" style="ellipse;whiteSpace=wrap;html=1;" vertex="1" parent="1">
          <mxGeometry x="810" y="75" width="80" height="35" as="geometry" />
        </mxCell>
        <mxCell id="4-ZppeO4a1uy9IRK5gXB-30" value="to_name" style="ellipse;whiteSpace=wrap;html=1;" vertex="1" parent="1">
          <mxGeometry x="910" y="80" width="100" height="35" as="geometry" />
        </mxCell>
        <mxCell id="4-ZppeO4a1uy9IRK5gXB-31" value="from_address" style="ellipse;whiteSpace=wrap;html=1;" vertex="1" parent="1">
          <mxGeometry x="970" y="130" width="100" height="35" as="geometry" />
        </mxCell>
        <mxCell id="4-ZppeO4a1uy9IRK5gXB-32" value="to_address" style="ellipse;whiteSpace=wrap;html=1;" vertex="1" parent="1">
          <mxGeometry x="980" y="180" width="100" height="35" as="geometry" />
        </mxCell>
        <mxCell id="4-ZppeO4a1uy9IRK5gXB-33" value="" style="endArrow=none;html=1;rounded=0;entryX=0.5;entryY=1;entryDx=0;entryDy=0;exitX=0.5;exitY=0;exitDx=0;exitDy=0;" edge="1" parent="1" source="4-ZppeO4a1uy9IRK5gXB-26" target="4-ZppeO4a1uy9IRK5gXB-29">
          <mxGeometry width="50" height="50" relative="1" as="geometry">
            <mxPoint x="530" y="190" as="sourcePoint" />
            <mxPoint x="580" y="140" as="targetPoint" />
          </mxGeometry>
        </mxCell>
        <mxCell id="4-ZppeO4a1uy9IRK5gXB-34" value="" style="endArrow=none;html=1;rounded=0;entryX=0;entryY=0.5;entryDx=0;entryDy=0;exitX=0.75;exitY=0;exitDx=0;exitDy=0;" edge="1" parent="1" source="4-ZppeO4a1uy9IRK5gXB-26" target="4-ZppeO4a1uy9IRK5gXB-30">
          <mxGeometry width="50" height="50" relative="1" as="geometry">
            <mxPoint x="840" y="170" as="sourcePoint" />
            <mxPoint x="860" y="120" as="targetPoint" />
          </mxGeometry>
        </mxCell>
        <mxCell id="4-ZppeO4a1uy9IRK5gXB-35" value="" style="endArrow=none;html=1;rounded=0;entryX=0;entryY=0.5;entryDx=0;entryDy=0;exitX=1;exitY=0;exitDx=0;exitDy=0;" edge="1" parent="1" source="4-ZppeO4a1uy9IRK5gXB-26" target="4-ZppeO4a1uy9IRK5gXB-31">
          <mxGeometry width="50" height="50" relative="1" as="geometry">
            <mxPoint x="870" y="170" as="sourcePoint" />
            <mxPoint x="950" y="123" as="targetPoint" />
          </mxGeometry>
        </mxCell>
        <mxCell id="4-ZppeO4a1uy9IRK5gXB-36" value="" style="endArrow=none;html=1;rounded=0;entryX=0;entryY=0.5;entryDx=0;entryDy=0;exitX=1;exitY=1;exitDx=0;exitDy=0;" edge="1" parent="1" source="4-ZppeO4a1uy9IRK5gXB-26" target="4-ZppeO4a1uy9IRK5gXB-32">
          <mxGeometry width="50" height="50" relative="1" as="geometry">
            <mxPoint x="900" y="180" as="sourcePoint" />
            <mxPoint x="975" y="178" as="targetPoint" />
          </mxGeometry>
        </mxCell>
      </root>
    </mxGraphModel>
  </diagram>
</mxfile>
